<svg width="131" height="59" viewBox="0 0 131 59" fill="none" xmlns="http://www.w3.org/2000/svg">
<rect width="131" height="59" rx="10" fill="#F5F7F9"/>
<g clip-path="url(#clip0_1_2765)">
<path d="M16.7202 39.3716C17.8811 40.8828 18.9377 42.4746 19.8824 44.1354C20.6889 45.6975 21.0251 46.7566 21.6145 48.6387C21.976 49.6786 22.3027 49.9889 23.0051 49.9889C23.7705 49.9889 24.1178 49.461 24.3861 48.6444C24.9432 46.867 25.3804 45.5105 26.0701 44.2288C27.4235 41.7543 29.1053 39.5554 30.7577 37.442C31.2051 36.8439 34.0974 33.3594 35.3995 30.6099C35.3995 30.6099 36.9999 27.5896 36.9999 23.3716C36.9999 19.426 35.4216 16.6895 35.4216 16.6895L30.8776 17.9324L28.1181 25.3561L27.4354 26.3798L27.2989 26.5652L27.1173 26.7973L26.7986 27.1681L26.3431 27.6332L23.8858 29.6781L17.7422 33.3013L16.7202 39.3716Z" fill="#34A853"/>
<path d="M10.3794 30.1024C11.8788 33.6006 14.7703 36.6757 16.7265 39.3744L27.1173 26.8024C27.1173 26.8024 25.6534 28.7579 22.998 28.7579C20.0402 28.7579 17.6506 26.3454 17.6506 23.3034C17.6506 21.2173 18.8794 19.7842 18.8794 19.7842L11.8259 21.7146L10.3794 30.1024Z" fill="#FBBC04"/>
<path d="M27.2333 9.64648C30.6843 10.783 33.6381 13.1689 35.4247 16.6872L27.1204 26.7951C27.1204 26.7951 28.3492 25.3361 28.3492 23.263C28.3492 20.1501 25.7829 17.8246 23.0106 17.8246C20.389 17.8246 18.8833 19.7768 18.8833 19.7768V13.409L27.2333 9.64648Z" fill="#4285F4"/>
<path d="M12.2827 14.1127C14.3439 11.5938 17.9708 9 22.971 9C25.3969 9 27.2245 9.65053 27.2245 9.65053L18.8753 19.7824H12.9597L12.2827 14.1127Z" fill="#1A73E8"/>
<path d="M10.3794 30.102C10.3794 30.102 9 27.3428 9 23.3456C9 19.5677 10.4378 16.2653 12.2829 14.1123L18.8802 19.7829L10.3794 30.102Z" fill="#EA4335"/>
</g>
<path d="M47.26 23.41C47.5133 23.45 47.7433 23.5533 47.95 23.72C48.1633 23.8867 48.33 24.0933 48.45 24.34C48.5767 24.5867 48.64 24.85 48.64 25.13C48.64 25.4833 48.55 25.8033 48.37 26.09C48.19 26.37 47.9267 26.5933 47.58 26.76C47.24 26.92 46.8367 27 46.37 27H43.77V20.03H46.27C46.7433 20.03 47.1467 20.11 47.48 20.27C47.8133 20.4233 48.0633 20.6333 48.23 20.9C48.3967 21.1667 48.48 21.4667 48.48 21.8C48.48 22.2133 48.3667 22.5567 48.14 22.83C47.92 23.0967 47.6267 23.29 47.26 23.41ZM44.68 23.04H46.21C46.6367 23.04 46.9667 22.94 47.2 22.74C47.4333 22.54 47.55 22.2633 47.55 21.91C47.55 21.5567 47.4333 21.28 47.2 21.08C46.9667 20.88 46.63 20.78 46.19 20.78H44.68V23.04ZM46.29 26.25C46.7433 26.25 47.0967 26.1433 47.35 25.93C47.6033 25.7167 47.73 25.42 47.73 25.04C47.73 24.6533 47.5967 24.35 47.33 24.13C47.0633 23.9033 46.7067 23.79 46.26 23.79H44.68V26.25H46.29ZM54.7628 21.52V27H53.8528V26.19C53.6795 26.47 53.4361 26.69 53.1228 26.85C52.8161 27.0033 52.4761 27.08 52.1028 27.08C51.6761 27.08 51.2928 26.9933 50.9528 26.82C50.6128 26.64 50.3428 26.3733 50.1428 26.02C49.9495 25.6667 49.8528 25.2367 49.8528 24.73V21.52H50.7528V24.61C50.7528 25.15 50.8895 25.5667 51.1628 25.86C51.4361 26.1467 51.8095 26.29 52.2828 26.29C52.7695 26.29 53.1528 26.14 53.4328 25.84C53.7128 25.54 53.8528 25.1033 53.8528 24.53V21.52H54.7628ZM59.3593 27L57.2093 24.58V27H56.2993V19.6H57.2093V23.95L59.3193 21.52H60.5893L58.0093 24.25L60.5993 27H59.3593ZM61.1058 24.24C61.1058 23.68 61.2191 23.19 61.4458 22.77C61.6724 22.3433 61.9824 22.0133 62.3758 21.78C62.7758 21.5467 63.2191 21.43 63.7058 21.43C64.1858 21.43 64.6024 21.5333 64.9558 21.74C65.3091 21.9467 65.5724 22.2067 65.7458 22.52V21.52H66.6658V27H65.7458V25.98C65.5658 26.3 65.2958 26.5667 64.9358 26.78C64.5824 26.9867 64.1691 27.09 63.6958 27.09C63.2091 27.09 62.7691 26.97 62.3758 26.73C61.9824 26.49 61.6724 26.1533 61.4458 25.72C61.2191 25.2867 61.1058 24.7933 61.1058 24.24ZM65.7458 24.25C65.7458 23.8367 65.6624 23.4767 65.4958 23.17C65.3291 22.8633 65.1024 22.63 64.8158 22.47C64.5358 22.3033 64.2258 22.22 63.8858 22.22C63.5458 22.22 63.2358 22.3 62.9558 22.46C62.6758 22.62 62.4524 22.8533 62.2858 23.16C62.1191 23.4667 62.0358 23.8267 62.0358 24.24C62.0358 24.66 62.1191 25.0267 62.2858 25.34C62.4524 25.6467 62.6758 25.8833 62.9558 26.05C63.2358 26.21 63.5458 26.29 63.8858 26.29C64.2258 26.29 64.5358 26.21 64.8158 26.05C65.1024 25.8833 65.3291 25.6467 65.4958 25.34C65.6624 25.0267 65.7458 24.6633 65.7458 24.25ZM70.5296 24.24C70.5296 23.68 70.6429 23.19 70.8696 22.77C71.0963 22.3433 71.4063 22.0133 71.7996 21.78C72.1996 21.5467 72.6463 21.43 73.1396 21.43C73.5663 21.43 73.9629 21.53 74.3296 21.73C74.6963 21.9233 74.9763 22.18 75.1696 22.5V19.6H76.0896V27H75.1696V25.97C74.9896 26.2967 74.7229 26.5667 74.3696 26.78C74.0163 26.9867 73.6029 27.09 73.1296 27.09C72.6429 27.09 72.1996 26.97 71.7996 26.73C71.4063 26.49 71.0963 26.1533 70.8696 25.72C70.6429 25.2867 70.5296 24.7933 70.5296 24.24ZM75.1696 24.25C75.1696 23.8367 75.0863 23.4767 74.9196 23.17C74.7529 22.8633 74.5263 22.63 74.2396 22.47C73.9596 22.3033 73.6496 22.22 73.3096 22.22C72.9696 22.22 72.6596 22.3 72.3796 22.46C72.0996 22.62 71.8763 22.8533 71.7096 23.16C71.5429 23.4667 71.4596 23.8267 71.4596 24.24C71.4596 24.66 71.5429 25.0267 71.7096 25.34C71.8763 25.6467 72.0996 25.8833 72.3796 26.05C72.6596 26.21 72.9696 26.29 73.3096 26.29C73.6496 26.29 73.9596 26.21 74.2396 26.05C74.5263 25.8833 74.7529 25.6467 74.9196 25.34C75.0863 25.0267 75.1696 24.6633 75.1696 24.25ZM78.0974 20.63C77.9241 20.63 77.7774 20.57 77.6574 20.45C77.5374 20.33 77.4774 20.1833 77.4774 20.01C77.4774 19.8367 77.5374 19.69 77.6574 19.57C77.7774 19.45 77.9241 19.39 78.0974 19.39C78.2641 19.39 78.4041 19.45 78.5174 19.57C78.6374 19.69 78.6974 19.8367 78.6974 20.01C78.6974 20.1833 78.6374 20.33 78.5174 20.45C78.4041 20.57 78.2641 20.63 78.0974 20.63ZM78.5374 21.52V27H77.6274V21.52H78.5374Z" fill="black"/>
<path d="M49.66 33.144C49.468 32.792 49.204 32.524 48.868 32.34C48.532 32.156 48.14 32.064 47.692 32.064C47.196 32.064 46.756 32.176 46.372 32.4C45.988 32.624 45.688 32.944 45.472 33.36C45.256 33.776 45.148 34.256 45.148 34.8C45.148 35.36 45.256 35.848 45.472 36.264C45.696 36.68 46.004 37 46.396 37.224C46.788 37.448 47.244 37.56 47.764 37.56C48.404 37.56 48.928 37.392 49.336 37.056C49.744 36.712 50.012 36.236 50.14 35.628H47.26V34.344H51.796V35.808C51.684 36.392 51.444 36.932 51.076 37.428C50.708 37.924 50.232 38.324 49.648 38.628C49.072 38.924 48.424 39.072 47.704 39.072C46.896 39.072 46.164 38.892 45.508 38.532C44.86 38.164 44.348 37.656 43.972 37.008C43.604 36.36 43.42 35.624 43.42 34.8C43.42 33.976 43.604 33.24 43.972 32.592C44.348 31.936 44.86 31.428 45.508 31.068C46.164 30.7 46.892 30.516 47.692 30.516C48.636 30.516 49.456 30.748 50.152 31.212C50.848 31.668 51.328 32.312 51.592 33.144H49.66ZM55.9909 39.108C55.3509 39.108 54.7749 38.968 54.2629 38.688C53.7509 38.4 53.3469 37.996 53.0509 37.476C52.7629 36.956 52.6189 36.356 52.6189 35.676C52.6189 34.996 52.7669 34.396 53.0629 33.876C53.3669 33.356 53.7789 32.956 54.2989 32.676C54.8189 32.388 55.3989 32.244 56.0389 32.244C56.6789 32.244 57.2589 32.388 57.7789 32.676C58.2989 32.956 58.7069 33.356 59.0029 33.876C59.3069 34.396 59.4589 34.996 59.4589 35.676C59.4589 36.356 59.3029 36.956 58.9909 37.476C58.6869 37.996 58.2709 38.4 57.7429 38.688C57.2229 38.968 56.6389 39.108 55.9909 39.108ZM55.9909 37.644C56.2949 37.644 56.5789 37.572 56.8429 37.428C57.1149 37.276 57.3309 37.052 57.4909 36.756C57.6509 36.46 57.7309 36.1 57.7309 35.676C57.7309 35.044 57.5629 34.56 57.2269 34.224C56.8989 33.88 56.4949 33.708 56.0149 33.708C55.5349 33.708 55.1309 33.88 54.8029 34.224C54.4829 34.56 54.3229 35.044 54.3229 35.676C54.3229 36.308 54.4789 36.796 54.7909 37.14C55.1109 37.476 55.5109 37.644 55.9909 37.644ZM63.6433 39.108C63.0033 39.108 62.4273 38.968 61.9153 38.688C61.4033 38.4 60.9993 37.996 60.7033 37.476C60.4153 36.956 60.2713 36.356 60.2713 35.676C60.2713 34.996 60.4193 34.396 60.7153 33.876C61.0193 33.356 61.4313 32.956 61.9513 32.676C62.4713 32.388 63.0513 32.244 63.6913 32.244C64.3313 32.244 64.9113 32.388 65.4313 32.676C65.9513 32.956 66.3593 33.356 66.6553 33.876C66.9593 34.396 67.1113 34.996 67.1113 35.676C67.1113 36.356 66.9553 36.956 66.6433 37.476C66.3393 37.996 65.9233 38.4 65.3953 38.688C64.8753 38.968 64.2913 39.108 63.6433 39.108ZM63.6433 37.644C63.9473 37.644 64.2313 37.572 64.4953 37.428C64.7673 37.276 64.9833 37.052 65.1433 36.756C65.3033 36.46 65.3833 36.1 65.3833 35.676C65.3833 35.044 65.2153 34.56 64.8793 34.224C64.5513 33.88 64.1473 33.708 63.6673 33.708C63.1873 33.708 62.7833 33.88 62.4553 34.224C62.1353 34.56 61.9753 35.044 61.9753 35.676C61.9753 36.308 62.1313 36.796 62.4433 37.14C62.7633 37.476 63.1633 37.644 63.6433 37.644ZM70.9476 32.244C71.4436 32.244 71.8796 32.344 72.2556 32.544C72.6316 32.736 72.9276 32.988 73.1436 33.3V32.352H74.8356V39.048C74.8356 39.664 74.7116 40.212 74.4636 40.692C74.2156 41.18 73.8436 41.564 73.3476 41.844C72.8516 42.132 72.2516 42.276 71.5476 42.276C70.6036 42.276 69.8276 42.056 69.2196 41.616C68.6196 41.176 68.2796 40.576 68.1996 39.816H69.8676C69.9556 40.12 70.1436 40.36 70.4316 40.536C70.7276 40.72 71.0836 40.812 71.4996 40.812C71.9876 40.812 72.3836 40.664 72.6876 40.368C72.9916 40.08 73.1436 39.64 73.1436 39.048V38.016C72.9276 38.328 72.6276 38.588 72.2436 38.796C71.8676 39.004 71.4356 39.108 70.9476 39.108C70.3876 39.108 69.8756 38.964 69.4116 38.676C68.9476 38.388 68.5796 37.984 68.3076 37.464C68.0436 36.936 67.9116 36.332 67.9116 35.652C67.9116 34.98 68.0436 34.384 68.3076 33.864C68.5796 33.344 68.9436 32.944 69.3996 32.664C69.8636 32.384 70.3796 32.244 70.9476 32.244ZM73.1436 35.676C73.1436 35.268 73.0636 34.92 72.9036 34.632C72.7436 34.336 72.5276 34.112 72.2556 33.96C71.9836 33.8 71.6916 33.72 71.3796 33.72C71.0676 33.72 70.7796 33.796 70.5156 33.948C70.2516 34.1 70.0356 34.324 69.8676 34.62C69.7076 34.908 69.6276 35.252 69.6276 35.652C69.6276 36.052 69.7076 36.404 69.8676 36.708C70.0356 37.004 70.2516 37.232 70.5156 37.392C70.7876 37.552 71.0756 37.632 71.3796 37.632C71.6916 37.632 71.9836 37.556 72.2556 37.404C72.5276 37.244 72.7436 37.02 72.9036 36.732C73.0636 36.436 73.1436 36.084 73.1436 35.676ZM78.1564 30.12V39H76.4764V30.12H78.1564ZM85.9963 35.532C85.9963 35.772 85.9803 35.988 85.9483 36.18H81.0883C81.1283 36.66 81.2963 37.036 81.5923 37.308C81.8883 37.58 82.2523 37.716 82.6843 37.716C83.3083 37.716 83.7523 37.448 84.0163 36.912H85.8283C85.6363 37.552 85.2683 38.08 84.7243 38.496C84.1803 38.904 83.5123 39.108 82.7203 39.108C82.0803 39.108 81.5043 38.968 80.9923 38.688C80.4883 38.4 80.0923 37.996 79.8043 37.476C79.5243 36.956 79.3843 36.356 79.3843 35.676C79.3843 34.988 79.5243 34.384 79.8043 33.864C80.0843 33.344 80.4763 32.944 80.9803 32.664C81.4843 32.384 82.0643 32.244 82.7203 32.244C83.3523 32.244 83.9163 32.38 84.4123 32.652C84.9163 32.924 85.3043 33.312 85.5763 33.816C85.8563 34.312 85.9963 34.884 85.9963 35.532ZM84.2563 35.052C84.2483 34.62 84.0923 34.276 83.7883 34.02C83.4843 33.756 83.1123 33.624 82.6723 33.624C82.2563 33.624 81.9043 33.752 81.6163 34.008C81.3363 34.256 81.1643 34.604 81.1003 35.052H84.2563ZM99.2139 30.624V39H97.5339V33.552L95.2899 39H94.0179L91.7619 33.552V39H90.0819V30.624H91.9899L94.6539 36.852L97.3179 30.624H99.2139ZM100.443 35.652C100.443 34.98 100.575 34.384 100.839 33.864C101.111 33.344 101.475 32.944 101.931 32.664C102.395 32.384 102.911 32.244 103.479 32.244C103.975 32.244 104.407 32.344 104.775 32.544C105.151 32.744 105.451 32.996 105.675 33.3V32.352H107.367V39H105.675V38.028C105.459 38.34 105.159 38.6 104.775 38.808C104.399 39.008 103.963 39.108 103.467 39.108C102.907 39.108 102.395 38.964 101.931 38.676C101.475 38.388 101.111 37.984 100.839 37.464C100.575 36.936 100.443 36.332 100.443 35.652ZM105.675 35.676C105.675 35.268 105.595 34.92 105.435 34.632C105.275 34.336 105.059 34.112 104.787 33.96C104.515 33.8 104.223 33.72 103.911 33.72C103.599 33.72 103.311 33.796 103.047 33.948C102.783 34.1 102.567 34.324 102.399 34.62C102.239 34.908 102.159 35.252 102.159 35.652C102.159 36.052 102.239 36.404 102.399 36.708C102.567 37.004 102.783 37.232 103.047 37.392C103.319 37.552 103.607 37.632 103.911 37.632C104.223 37.632 104.515 37.556 104.787 37.404C105.059 37.244 105.275 37.02 105.435 36.732C105.595 36.436 105.675 36.084 105.675 35.676ZM110.688 33.312C110.904 33.008 111.2 32.756 111.576 32.556C111.96 32.348 112.396 32.244 112.884 32.244C113.452 32.244 113.964 32.384 114.42 32.664C114.884 32.944 115.248 33.344 115.512 33.864C115.784 34.376 115.92 34.972 115.92 35.652C115.92 36.332 115.784 36.936 115.512 37.464C115.248 37.984 114.884 38.388 114.42 38.676C113.964 38.964 113.452 39.108 112.884 39.108C112.396 39.108 111.964 39.008 111.588 38.808C111.22 38.608 110.92 38.356 110.688 38.052V42.168H109.008V32.352H110.688V33.312ZM114.204 35.652C114.204 35.252 114.12 34.908 113.952 34.62C113.792 34.324 113.576 34.1 113.304 33.948C113.04 33.796 112.752 33.72 112.44 33.72C112.136 33.72 111.848 33.8 111.576 33.96C111.312 34.112 111.096 34.336 110.928 34.632C110.768 34.928 110.688 35.276 110.688 35.676C110.688 36.076 110.768 36.424 110.928 36.72C111.096 37.016 111.312 37.244 111.576 37.404C111.848 37.556 112.136 37.632 112.44 37.632C112.752 37.632 113.04 37.552 113.304 37.392C113.576 37.232 113.792 37.004 113.952 36.708C114.12 36.412 114.204 36.06 114.204 35.652ZM119.685 39.108C119.141 39.108 118.653 39.012 118.221 38.82C117.789 38.62 117.445 38.352 117.189 38.016C116.941 37.68 116.805 37.308 116.781 36.9H118.473C118.505 37.156 118.629 37.368 118.845 37.536C119.069 37.704 119.345 37.788 119.673 37.788C119.993 37.788 120.241 37.724 120.417 37.596C120.601 37.468 120.693 37.304 120.693 37.104C120.693 36.888 120.581 36.728 120.357 36.624C120.141 36.512 119.793 36.392 119.312 36.264C118.817 36.144 118.409 36.02 118.089 35.892C117.777 35.764 117.505 35.568 117.273 35.304C117.049 35.04 116.937 34.684 116.937 34.236C116.937 33.868 117.041 33.532 117.249 33.228C117.465 32.924 117.769 32.684 118.161 32.508C118.561 32.332 119.029 32.244 119.565 32.244C120.357 32.244 120.989 32.444 121.461 32.844C121.933 33.236 122.193 33.768 122.241 34.44H120.633C120.609 34.176 120.497 33.968 120.297 33.816C120.105 33.656 119.845 33.576 119.517 33.576C119.213 33.576 118.977 33.632 118.809 33.744C118.649 33.856 118.569 34.012 118.569 34.212C118.569 34.436 118.681 34.608 118.905 34.728C119.129 34.84 119.477 34.956 119.949 35.076C120.429 35.196 120.825 35.32 121.137 35.448C121.449 35.576 121.717 35.776 121.941 36.048C122.173 36.312 122.293 36.664 122.301 37.104C122.301 37.488 122.193 37.832 121.977 38.136C121.769 38.44 121.465 38.68 121.065 38.856C120.673 39.024 120.213 39.108 119.685 39.108Z" fill="black"/>
<defs>
<clipPath id="clip0_1_2765">
<rect width="28" height="41" fill="white" transform="translate(9 9)"/>
</clipPath>
</defs>
</svg>
