<svg width="155" height="61" viewBox="0 0 155 61" fill="none" xmlns="http://www.w3.org/2000/svg">
<path d="M45.2802 22.2737L42.9314 41.3098C42.6942 43.2296 41.932 44.9695 40.7991 46.3882V42.6348C40.7991 39.3587 38.1507 36.7013 34.8826 36.7013H18.6128C16.9787 36.7013 15.6545 35.3734 15.6545 33.7346V33.29C15.6545 30.0139 13.0062 27.3565 9.738 27.3565H8.11133V38.3327C8.11133 41.6087 10.7597 44.2661 14.0279 44.2661H31.0375C32.2624 44.2661 33.2559 45.2624 33.2559 46.4908V50.1936C33.1373 50.1981 33.0186 50.1996 32.9015 50.1996H12.459C7.35804 50.1996 3.05484 46.3852 2.42759 41.3083L0.0787722 22.2737C-0.290455 19.2772 0.67784 16.4547 2.48987 14.3699V18.4564C2.48987 21.7324 5.13823 24.3898 8.40641 24.3898H24.6762C26.3102 24.3898 27.6344 25.7178 27.6344 27.3565V27.8012C27.6344 31.0772 30.2828 33.7346 33.551 33.7346H35.1776V22.7585C35.1776 19.4824 32.5293 16.825 29.2611 16.825H12.2514C11.0266 16.825 10.0331 15.8287 10.0331 14.6004V10.8931C10.0583 10.8931 10.085 10.8931 10.1102 10.8931H35.2488C41.324 10.8931 46.0261 16.2287 45.2802 22.2752V22.2737Z" fill="#006837"/>
<path d="M70.4442 40.4667C69.2579 42.5486 66.4405 43.7755 63.0671 43.7755C56.246 43.7755 51.9087 37.4182 51.9087 30.5405C51.9087 23.2538 56.0606 17.417 64.0309 17.417C69.8882 17.417 74.4108 20.9116 74.7815 25.8562H69.5916C69.3321 23.5512 66.8483 21.6923 64.0309 21.6923C59.916 21.6923 57.1728 24.8896 57.1728 30.7635C57.1728 34.8158 59.2117 39.4258 63.9939 39.4258C67.3673 39.4258 69.9994 36.8606 69.9994 33.7749H67.1123C65.6962 33.7749 64.5499 32.6239 64.5499 31.2052V29.6482H74.8186V42.9204H73.0051C71.6349 42.9204 70.5065 41.8393 70.4442 40.4667Z" fill="#1A1A1A"/>
<path d="M76.8188 22.4359V17.9375H81.6381V19.4618C81.6381 21.105 80.3109 22.4359 78.6724 22.4359H76.8188ZM76.8188 42.9204V24.6294H78.6724C80.3109 24.6294 81.6381 25.9603 81.6381 27.6035V42.9204H76.8188Z" fill="#1A1A1A"/>
<path d="M89.4972 42.9205L82.9727 24.6294H84.9641C86.9793 24.6294 88.7617 25.938 89.3696 27.8638L92.1663 36.7119L95.0786 27.5842C95.6406 25.8235 97.2717 24.6294 99.1149 24.6294H101.1L94.5388 42.9205H89.4972Z" fill="#1A1A1A"/>
<path d="M102.769 42.9204V18.2349H120.859V19.5732C120.859 21.2165 119.532 22.5474 117.894 22.5474H107.773V27.8265H119.821V32.1762H107.773V38.5335H118.487C120.125 38.5335 121.452 39.8644 121.452 41.5077V42.9204H102.769Z" fill="#1A1A1A"/>
<path d="M133.723 41.2846C132.574 42.5486 130.646 43.4037 128.199 43.4037C124.047 43.4037 122.12 41.3589 122.12 38.3848C122.12 33.1056 125.641 32.5108 130.498 31.8416C132.907 31.507 133.575 31.0237 133.575 29.7597C133.575 28.5701 132.388 27.8637 130.498 27.8637C128.31 27.8637 127.421 28.9418 127.198 30.5776H122.713C122.787 26.7856 124.863 24.146 130.72 24.146C136.577 24.146 138.505 26.7484 138.505 31.3583V42.9204H135.468C134.547 42.9204 133.785 42.2051 133.723 41.2846ZM133.686 33.9607C133.204 34.444 132.351 34.7043 130.572 35.0389C127.829 35.5593 126.939 36.34 126.939 37.9015C126.939 39.277 127.754 39.9462 129.274 39.9462C131.758 39.9462 133.612 38.1245 133.649 35.9683L133.686 33.9607Z" fill="#1A1A1A"/>
<path d="M155 36.0796C155 39.946 152.776 43.4035 147.623 43.4035C142.47 43.4035 140.172 39.9832 140.172 36.0424V30.4406C140.172 29.01 139.816 27.6092 139.147 26.363C138.81 25.737 138.348 25.1897 137.795 24.7451L137.608 24.5949L140.129 24.6098L140.172 19.6846H144.917V24.6291H150.538V28.0494H144.917V35.5591C144.917 37.8641 145.732 39.2025 147.697 39.2025C149.662 39.2025 150.515 37.9013 150.515 35.6335" fill="#1A1A1A"/>
</svg>
